<?xml version="1.0" encoding="UTF-8"?>
<svg id="Layer_1" xmlns="http://www.w3.org/2000/svg" version="1.1" viewBox="0 0 2726.53 1286.68">
  <!-- Generator: Adobe Illustrator 30.1.0, SVG Export Plug-In . SVG Version: 2.1.1 Build 136)  -->
  <defs>
    <style>
      .st0 {
        fill: #fff;
      }
    </style>
  </defs>
  <g>
    <g>
      <polygon class="st0" points="1281.99 294.5 1301.52 274.97 1365.51 338.96 1365.46 198 1209.51 288.04 1365.3 377.81 1281.99 294.5"/>
      <polygon class="st0" points="1390.25 363.69 1404.5 377.95 1390.22 392.23 1521.41 468.11 1521.41 288.04 1390.25 363.69"/>
      <polygon class="st0" points="1344.28 486.25 1344.28 461.25 1365.5 461.25 1365.51 416.94 1301.52 480.93 1281.99 461.39 1365.3 378.08 1209.51 468.11 1365.46 558.15 1365.49 486.25 1344.28 486.25"/>
      <polygon class="st0" points="1365.43 377.95 1365.3 377.81 1209.51 288.04 1209.51 468.11 1365.3 378.08 1365.43 377.95"/>
      <polygon class="st0" points="1390.25 363.69 1521.41 288.04 1365.46 198 1365.51 338.96 1390.25 363.69"/>
      <path class="st0" d="M1365.51,416.94l-.02,44.31h60.16v25h-60.17l-.03,71.9,155.95-90.04-131.18-75.88-24.71,24.71ZM1438.54,467.78l12.5-7.22,12.5,7.22v11.93l-12.5,7.22-12.5-7.22v-11.93Z"/>
      <polygon class="st0" points="1365.3 377.81 1365.43 377.95 1365.3 378.08 1365.53 377.95 1365.3 377.81"/>
    </g>
    <g>
      <polygon class="st0" points="1507.59 136.76 1507.59 136.66 1423.59 185.16 1423.68 185.25 1507.59 136.76"/>
      <polygon class="st0" points="1586.97 179 1586.97 159.85 1566.95 148.31 1546.84 159.85 1546.84 179 1566.95 190.55 1586.97 179"/>
      <polygon class="st0" points="1184.2 179 1184.2 159.85 1164.19 148.31 1144.17 159.85 1144.17 179 1164.19 190.55 1184.2 179"/>
      <polygon class="st0" points="1507.59 136.76 1507.78 136.66 1365.57 54.59 1365.57 151.67 1423.48 185.09 1507.45 136.61 1507.45 136.73 1423.58 185.15 1423.59 185.16 1507.59 136.66 1507.59 136.76"/>
      <polygon class="st0" points="1223.36 136.66 1307.45 185.25 1365.57 151.67 1365.57 54.59 1223.36 136.66"/>
      <polyline class="st0" points="1307.45 185.25 1223.36 136.66 1223.36 202.19 1274.5 231.68 1307.31 212.73"/>
      <polyline class="st0" points="1507.78 230.28 1507.59 230.38 1507.59 136.76 1423.68 185.25 1423.59 185.16 1423.49 185.25 1423.49 212.71 1507.59 261.26"/>
      <polygon class="st0" points="1126.08 355.37 1041.99 306.78 1041.99 471.02 1126.08 422.43 1126.08 355.37"/>
      <polygon class="st0" points="1546.84 203.15 1546.65 203.25 1546.46 300.52 1546.84 300.23 1604.96 333.81 1689.05 285.22 1546.84 203.15"/>
      <polygon class="st0" points="1689.05 285.22 1604.96 333.81 1604.96 401.93 1689.05 450.52 1689.05 285.22"/>
      <polygon class="st0" points="1546.65 531.54 1546.83 531.44 1546.65 531.33 1546.65 531.54"/>
      <polygon class="st0" points="1604.96 401.93 1546.75 434.31 1546.84 434.36 1546.84 531.43 1689.05 450.52 1604.96 401.93"/>
      <polygon class="st0" points="1231.61 500.67 1192.76 478.24 1192.76 450.05 1184.2 456.01 1184.2 553.09 1231.73 519.99 1231.73 500.74 1231.61 500.67"/>
      <polygon class="st0" points="1126.08 422.43 1041.99 471.02 1184.2 553.09 1184.2 456.01 1126.08 422.43"/>
      <polygon class="st0" points="1184.2 321.79 1184.2 224.7 1041.99 306.78 1126.08 355.37 1184.2 321.79"/>
      <polygon class="st0" points="1401.7 556.98 1365.42 577.93 1329.3 557.07 1329.3 613.9 1401.84 614.58 1401.7 556.98"/>
      <polygon class="st0" points="1329.3 681.93 1365.57 702.61 1401.84 681.93 1401.84 653.93 1329.3 653.25 1329.3 681.93"/>
      <polygon class="st0" points="1426.47 667.21 1499.02 625.54 1499.02 613.61 1426.47 613.04 1426.47 667.21"/>
      <polygon class="st0" points="1455.54 525.9 1426.47 542.68 1426.47 573.68 1499.02 574.26 1499.02 550.98 1455.6 525.87 1455.54 525.9"/>
      <polyline class="st0" points="1184.49 224.7 1184.49 321.79 1192.76 326.58 1192.76 278.87 1235.42 254.24"/>
      <polygon class="st0" points="1546.84 531.44 1546.84 531.43 1546.83 531.44 1546.84 531.44"/>
      <polygon class="st0" points="1546.75 434.31 1546.65 434.36 1546.65 531.33 1546.83 531.44 1546.84 531.43 1546.84 434.36 1546.75 434.31"/>
      <polyline class="st0" points="1304.17 542.57 1231.73 500.74 1231.73 519.99 1231.73 573.68 1304.28 574.26"/>
      <polygon class="st0" points="1231.73 625.54 1304.28 667.21 1304.28 613.61 1231.73 613.04 1231.73 625.54"/>
      <polygon class="st0" points="1499.02 550.98 1499.02 504.02 1496.24 502.41 1455.6 525.87 1499.02 550.98"/>
      <polygon class="st0" points="1423.44 185.12 1423.54 185.18 1423.58 185.15 1423.48 185.09 1423.44 185.12"/>
      <polygon class="st0" points="1507.45 136.61 1423.48 185.09 1423.58 185.15 1507.45 136.73 1507.45 136.61"/>
      <rect class="st0" x="1496.03" y="503.19" width="3.14" height="0"/>
      <line class="st0" x1="1423.49" y1="212.71" x2="1423.34" y2="212.62"/>
      <line class="st0" x1="1329.14" y1="556.98" x2="1329.3" y2="557.07"/>
    </g>
  </g>
  <g>
    <g>
      <path class="st0" d="M162.98,874.54c0,2.27-1.19,3.4-3.58,3.4h-23.95c-2.39,0-3.58-1.13-3.58-3.4l.49-68.18.74-6.8-.25,1.16-18.77,56.28c-.41,1.19-.86,2-1.36,2.42-.49.42-1.44.63-2.84.63h-18.4c-1.4,0-2.33-.21-2.78-.63-.45-.42-.93-1.22-1.42-2.42l-18.77-56.01.62,5.37.37,68.18c0,2.27-1.19,3.4-3.58,3.4h-24.08c-2.31,0-3.46-1.13-3.46-3.4v-117.12c0-2.21,1.19-3.31,3.58-3.31h31.86c1.4,0,2.3.27,2.72.81.41.54.78,1.31,1.11,2.33l21.85,61.65.99,4.83,1.11-4.74,22.1-61.74c.33-1.01.7-1.79,1.11-2.33.41-.54,1.32-.81,2.72-.81h31.86c2.3,0,3.46,1.1,3.46,3.31l.12,117.12Z"/>
      <path class="st0" d="M187.24,757.6c0-1.07.37-1.92,1.11-2.55.74-.63,1.81-.94,3.21-.94h25.31c1.4,0,2.45.31,3.15.94.7.63,1.05,1.48,1.05,2.55v116.94c0,2.27-1.4,3.4-4.2,3.4h-25.31c-2.88,0-4.32-1.13-4.32-3.4v-116.94Z"/>
      <path class="st0" d="M242.6,843.04c0-1.55.27-2.65.8-3.31.53-.66,1.67-.98,3.4-.98h23.21c1.81,0,2.98.27,3.52.81.53.54.8,1.49.8,2.86v4.03c0,2.27.43,4.15,1.3,5.64.86,1.49,2,2.7,3.4,3.62,1.4.93,2.92,1.58,4.57,1.97,1.65.39,3.29.58,4.94.58,1.98,0,3.83-.25,5.56-.76,1.73-.51,3.23-1.22,4.51-2.15,1.28-.92,2.3-2.04,3.09-3.35.78-1.31,1.17-2.77,1.17-4.38,0-2.15-.43-4.07-1.3-5.77-.86-1.7-2.18-3.36-3.95-4.97-1.77-1.61-4.06-3.27-6.85-4.97-2.8-1.7-6.09-3.68-9.88-5.95-6.67-3.82-12.41-7.17-17.22-10.07-4.82-2.89-8.79-5.82-11.92-8.77-3.13-2.95-5.43-6.2-6.91-9.75-1.48-3.55-2.22-7.89-2.22-13.02,0-5.79,1.5-10.72,4.51-14.81,3-4.08,6.75-7.41,11.24-9.98,4.49-2.56,9.34-4.43,14.57-5.59,5.23-1.16,10.06-1.74,14.51-1.74,6.5,0,12.49.78,17.97,2.33,5.47,1.55,10.21,3.74,14.2,6.58,3.99,2.83,7.1,6.26,9.32,10.29,2.22,4.03,3.33,8.52,3.33,13.47v5.19c0,1.31-.31,2.19-.93,2.64-.62.45-1.96.67-4.01.67h-22.6c-1.65,0-2.7-.24-3.15-.72-.45-.48-.68-1.34-.68-2.59v-5.1c0-1.55-.29-3.01-.86-4.38-.58-1.37-1.42-2.56-2.53-3.58-1.11-1.01-2.51-1.82-4.2-2.42-1.69-.6-3.64-.9-5.87-.9-1.56,0-3.15.21-4.75.63-1.61.42-3.05,1.07-4.32,1.97-1.28.9-2.33,2.06-3.15,3.49-.82,1.43-1.23,3.16-1.23,5.19,0,2.15.43,4.03,1.3,5.64.86,1.61,2.1,3.12,3.7,4.52,1.6,1.4,3.56,2.76,5.86,4.07,2.3,1.31,4.86,2.74,7.66,4.29,5.93,3.22,11.46,6.34,16.61,9.35,5.14,3.01,9.63,6.25,13.46,9.71,3.83,3.46,6.85,7.29,9.08,11.5s3.33,9.14,3.33,14.81c0,4.18-1.13,8.14-3.4,11.9-2.26,3.76-5.43,7.05-9.51,9.89-4.07,2.83-8.97,5.09-14.69,6.76-5.72,1.67-12.08,2.5-19.08,2.5-7.66,0-14.32-.88-20-2.64s-10.43-4.13-14.26-7.11c-3.83-2.98-6.69-6.4-8.58-10.24-1.89-3.85-2.84-7.89-2.84-12.12v-4.74Z"/>
      <path class="st0" d="M355.73,757.6c0-1.07.37-1.92,1.11-2.55.74-.63,1.81-.94,3.21-.94h44.57c6.5,0,12.55.84,18.15,2.5,5.6,1.67,10.41,3.95,14.45,6.84,4.03,2.89,7.2,6.29,9.51,10.2,2.3,3.91,3.46,8.1,3.46,12.57v28.63c0,4.47-1.15,8.68-3.46,12.62-2.31,3.94-5.49,7.37-9.57,10.29-4.07,2.92-8.89,5.23-14.45,6.93-5.56,1.7-11.59,2.55-18.09,2.55h-15.06v27.29c0,2.27-1.4,3.4-4.2,3.4h-25.31c-2.88,0-4.32-1.13-4.32-3.4v-116.94ZM402.03,825.69c4.36,0,7.84-1.01,10.43-3.04,2.59-2.03,3.89-4.56,3.89-7.6v-28.36c0-3.22-1.32-5.83-3.95-7.83-2.64-2-6.13-3-10.5-3h-12.35v49.84h12.47Z"/>
    </g>
    <g>
      <path class="st0" d="M46.05,958.55h78.41l46.66,154.91,51.64-155.67h63.88l51.64,155.67,46.66-154.91h76.88l-89.5,269.66h-64.64l-53.93-154.14-53.55,154.14h-64.64l-89.5-269.66Z"/>
      <path class="st0" d="M463.35,1093.18v-.76c0-76.88,61.96-139.23,144.58-139.23s143.82,61.58,143.82,138.46v.76c0,76.88-61.96,139.23-144.58,139.23s-143.82-61.58-143.82-138.46ZM676.01,1093.18v-.76c0-38.63-27.92-72.29-68.85-72.29s-67.7,32.89-67.7,71.53v.76c0,38.63,27.92,72.29,68.47,72.29s68.08-32.89,68.08-71.53Z"/>
      <path class="st0" d="M787.24,958.55h126.6c40.93,0,69.23,10.71,87.21,29.07,15.68,15.3,23.71,35.95,23.71,62.35v.77c0,40.93-21.8,68.08-55.08,82.24l63.88,93.33h-85.68l-53.93-81.09h-32.51v81.09h-74.2v-267.75ZM910.4,1087.06c25.24,0,39.78-12.24,39.78-31.75v-.77c0-21.04-15.3-31.75-40.16-31.75h-48.58v64.26h48.96Z"/>
      <path class="st0" d="M1061.52,958.55h74.2v108.63l92.18-108.63h87.97l-101.36,115.13,104.8,152.61h-89.12l-67.32-99.45-27.16,30.22v69.23h-74.2v-267.75Z"/>
      <path class="st0" d="M1338.64,958.55h137.31c33.66,0,57.37,8.42,73.06,24.1,10.71,10.71,17.21,24.86,17.21,43.22v.76c0,30.98-17.59,49.34-41.31,59.67,32.51,10.71,53.17,29.07,53.17,65.41v.76c0,45.9-37.48,73.82-101.36,73.82h-138.08v-267.75ZM1457.59,1065.26c22.57,0,35.19-7.65,35.19-23.33v-.76c0-14.54-11.47-22.95-33.66-22.95h-48.19v47.05h46.66ZM1468.3,1166.62c22.57,0,35.57-8.8,35.57-24.48v-.76c0-14.54-11.47-24.1-36.34-24.1h-56.61v49.34h57.37Z"/>
      <path class="st0" d="M1612.96,958.55h215.34v63.11h-141.9v40.54h128.52v58.52h-128.52v42.46h143.82v63.11h-217.25v-267.75Z"/>
      <path class="st0" d="M1871.37,958.55h69.23l110.16,141.52v-141.52h73.44v267.75h-65.02l-114.37-146.88v146.88h-73.44v-267.75Z"/>
      <path class="st0" d="M2160.38,1093.18v-.76c0-78.03,60.05-139.23,141.14-139.23,54.7,0,89.89,22.95,113.6,55.84l-55.84,43.22c-15.3-19.12-32.89-31.36-58.52-31.36-37.48,0-63.88,31.75-63.88,70.76v.76c0,40.16,26.39,71.53,63.88,71.53,27.92,0,44.37-13,60.43-32.51l55.84,39.78c-25.24,34.81-59.29,60.43-118.57,60.43-76.5,0-138.08-58.52-138.08-138.46Z"/>
      <path class="st0" d="M2444.49,958.55h74.2v100.21h95.24v-100.21h74.2v267.75h-74.2v-101.74h-95.24v101.74h-74.2v-267.75Z"/>
    </g>
  </g>
</svg>