<?xml version="1.0" encoding="UTF-8"?>
<svg id="Layer_1" xmlns="http://www.w3.org/2000/svg" version="1.1" viewBox="0 0 2726.53 1286.68">
  <!-- Generator: Adobe Illustrator 30.1.0, SVG Export Plug-In . SVG Version: 2.1.1 Build 136)  -->
  <defs>
    <style>
      .st0 {
        fill: none;
      }

      .st1 {
        fill: #01a4c5;
      }

      .st2 {
        fill: #6ebf4f;
      }

      .st3 {
        fill: #23a15f;
      }

      .st4 {
        fill: #5ca23a;
      }

      .st5 {
        fill: #fdfbfa;
      }

      .st6 {
        fill: #33616e;
      }

      .st7 {
        fill: #86c87b;
      }

      .st8 {
        fill: #0091b0;
      }

      .st9 {
        fill: #afd24a;
      }

      .st10 {
        fill: #534749;
      }

      .st11 {
        fill: #348da3;
      }

      .st12 {
        fill: #fff;
      }

      .st13 {
        fill: #0090af;
      }

      .st14 {
        fill: #00394a;
      }

      .st15 {
        fill: #59cfee;
      }

      .st16 {
        fill: #74ab51;
      }

      .st17 {
        fill: #6c3;
      }

      .st18 {
        fill: #28191b;
      }

      .st19 {
        fill: #30c3ea;
      }

      .st20 {
        fill: #33a6bf;
      }

      .st21 {
        fill: #34b6d1;
      }
    </style>
  </defs>
  <g>
    <g>
      <path class="st8" d="M155.42,874.54c0,2.27-1.19,3.4-3.58,3.4h-23.95c-2.39,0-3.58-1.13-3.58-3.4l.49-68.18.74-6.8-.25,1.16-18.77,56.28c-.41,1.19-.86,2-1.36,2.42-.49.42-1.44.63-2.84.63h-18.4c-1.4,0-2.33-.21-2.78-.63-.45-.42-.93-1.22-1.42-2.42l-18.77-56.01.62,5.37.37,68.18c0,2.27-1.19,3.4-3.58,3.4h-24.08c-2.31,0-3.46-1.13-3.46-3.4v-117.12c0-2.21,1.19-3.31,3.58-3.31h31.86c1.4,0,2.3.27,2.72.81.41.54.78,1.31,1.11,2.33l21.85,61.65.99,4.83,1.11-4.74,22.1-61.74c.33-1.01.7-1.79,1.11-2.33.41-.54,1.32-.81,2.72-.81h31.86c2.3,0,3.46,1.1,3.46,3.31l.12,117.12Z"/>
      <path class="st8" d="M179.68,757.6c0-1.07.37-1.92,1.11-2.55.74-.63,1.81-.94,3.21-.94h25.31c1.4,0,2.45.31,3.15.94.7.63,1.05,1.48,1.05,2.55v116.94c0,2.27-1.4,3.4-4.2,3.4h-25.31c-2.88,0-4.32-1.13-4.32-3.4v-116.94Z"/>
      <path class="st8" d="M235.04,843.04c0-1.55.27-2.65.8-3.31.53-.66,1.67-.98,3.4-.98h23.21c1.81,0,2.98.27,3.52.81.53.54.8,1.49.8,2.86v4.03c0,2.27.43,4.15,1.3,5.64.86,1.49,2,2.7,3.4,3.62,1.4.93,2.92,1.58,4.57,1.97,1.65.39,3.29.58,4.94.58,1.98,0,3.83-.25,5.56-.76,1.73-.51,3.23-1.22,4.51-2.15,1.28-.92,2.3-2.04,3.09-3.35.78-1.31,1.17-2.77,1.17-4.38,0-2.15-.43-4.07-1.3-5.77-.86-1.7-2.18-3.36-3.95-4.97-1.77-1.61-4.06-3.27-6.85-4.97-2.8-1.7-6.09-3.68-9.88-5.95-6.67-3.82-12.41-7.17-17.22-10.07-4.82-2.89-8.79-5.82-11.92-8.77-3.13-2.95-5.43-6.2-6.91-9.75-1.48-3.55-2.22-7.89-2.22-13.02,0-5.79,1.5-10.72,4.51-14.81,3-4.08,6.75-7.41,11.24-9.98,4.49-2.56,9.34-4.43,14.57-5.59,5.23-1.16,10.06-1.74,14.51-1.74,6.5,0,12.49.78,17.97,2.33,5.47,1.55,10.21,3.74,14.2,6.58,3.99,2.83,7.1,6.26,9.32,10.29,2.22,4.03,3.33,8.52,3.33,13.47v5.19c0,1.31-.31,2.19-.93,2.64-.62.45-1.96.67-4.01.67h-22.6c-1.65,0-2.7-.24-3.15-.72-.45-.48-.68-1.34-.68-2.59v-5.1c0-1.55-.29-3.01-.86-4.38-.58-1.37-1.42-2.56-2.53-3.58-1.11-1.01-2.51-1.82-4.2-2.42-1.69-.6-3.64-.9-5.87-.9-1.56,0-3.15.21-4.75.63-1.61.42-3.05,1.07-4.32,1.97-1.28.9-2.33,2.06-3.15,3.49-.82,1.43-1.23,3.16-1.23,5.19,0,2.15.43,4.03,1.3,5.64.86,1.61,2.1,3.12,3.7,4.52,1.6,1.4,3.56,2.76,5.86,4.07,2.3,1.31,4.86,2.74,7.66,4.29,5.93,3.22,11.46,6.34,16.61,9.35,5.14,3.01,9.63,6.25,13.46,9.71,3.83,3.46,6.85,7.29,9.08,11.5s3.33,9.14,3.33,14.81c0,4.18-1.13,8.14-3.4,11.9-2.26,3.76-5.43,7.05-9.51,9.89-4.07,2.83-8.97,5.09-14.69,6.76-5.72,1.67-12.08,2.5-19.08,2.5-7.66,0-14.32-.88-20-2.64s-10.43-4.13-14.26-7.11c-3.83-2.98-6.69-6.4-8.58-10.24-1.89-3.85-2.84-7.89-2.84-12.12v-4.74Z"/>
      <path class="st8" d="M348.17,757.6c0-1.07.37-1.92,1.11-2.55.74-.63,1.81-.94,3.21-.94h44.57c6.5,0,12.55.84,18.15,2.5,5.6,1.67,10.41,3.95,14.45,6.84,4.03,2.89,7.2,6.29,9.51,10.2,2.3,3.91,3.46,8.1,3.46,12.57v28.63c0,4.47-1.15,8.68-3.46,12.62-2.31,3.94-5.49,7.37-9.57,10.29-4.07,2.92-8.89,5.23-14.45,6.93-5.56,1.7-11.59,2.55-18.09,2.55h-15.06v27.29c0,2.27-1.4,3.4-4.2,3.4h-25.31c-2.88,0-4.32-1.13-4.32-3.4v-116.94ZM394.47,825.69c4.36,0,7.84-1.01,10.43-3.04,2.59-2.03,3.89-4.56,3.89-7.6v-28.36c0-3.22-1.32-5.83-3.95-7.83-2.64-2-6.13-3-10.5-3h-12.35v49.84h12.47Z"/>
    </g>
    <g>
      <path class="st18" d="M38.5,958.55h78.41l46.66,154.91,51.64-155.67h63.88l51.64,155.67,46.66-154.91h76.88l-89.5,269.66h-64.64l-53.93-154.14-53.55,154.14h-64.64l-89.5-269.66Z"/>
      <path class="st18" d="M455.79,1093.18v-.76c0-76.88,61.96-139.23,144.58-139.23s143.82,61.58,143.82,138.46v.76c0,76.88-61.96,139.23-144.58,139.23s-143.82-61.58-143.82-138.46ZM668.46,1093.18v-.76c0-38.63-27.92-72.29-68.85-72.29s-67.7,32.89-67.7,71.53v.76c0,38.63,27.92,72.29,68.47,72.29s68.08-32.89,68.08-71.53Z"/>
      <path class="st18" d="M779.68,958.55h126.6c40.93,0,69.23,10.71,87.21,29.07,15.68,15.3,23.71,35.95,23.71,62.35v.77c0,40.93-21.8,68.08-55.08,82.24l63.88,93.33h-85.68l-53.93-81.09h-32.51v81.09h-74.2v-267.75ZM902.84,1087.06c25.24,0,39.78-12.24,39.78-31.75v-.77c0-21.04-15.3-31.75-40.16-31.75h-48.58v64.26h48.96Z"/>
      <path class="st18" d="M1053.97,958.55h74.2v108.63l92.18-108.63h87.97l-101.36,115.13,104.8,152.61h-89.12l-67.32-99.45-27.16,30.22v69.23h-74.2v-267.75Z"/>
      <path class="st18" d="M1331.08,958.55h137.31c33.66,0,57.37,8.42,73.06,24.1,10.71,10.71,17.21,24.86,17.21,43.22v.76c0,30.98-17.59,49.34-41.31,59.67,32.51,10.71,53.17,29.07,53.17,65.41v.76c0,45.9-37.48,73.82-101.36,73.82h-138.08v-267.75ZM1450.03,1065.26c22.57,0,35.19-7.65,35.19-23.33v-.76c0-14.54-11.47-22.95-33.66-22.95h-48.19v47.05h46.66ZM1460.74,1166.62c22.57,0,35.57-8.8,35.57-24.48v-.76c0-14.54-11.47-24.1-36.34-24.1h-56.61v49.34h57.37Z"/>
      <path class="st18" d="M1605.4,958.55h215.34v63.11h-141.9v40.54h128.52v58.52h-128.52v42.46h143.82v63.11h-217.25v-267.75Z"/>
      <path class="st18" d="M1863.81,958.55h69.23l110.16,141.52v-141.52h73.44v267.75h-65.02l-114.37-146.88v146.88h-73.44v-267.75Z"/>
      <path class="st18" d="M2152.82,1093.18v-.76c0-78.03,60.05-139.23,141.14-139.23,54.7,0,89.89,22.95,113.6,55.84l-55.84,43.22c-15.3-19.12-32.89-31.36-58.52-31.36-37.48,0-63.88,31.75-63.88,70.76v.76c0,40.16,26.39,71.53,63.88,71.53,27.92,0,44.37-13,60.43-32.51l55.84,39.78c-25.24,34.81-59.29,60.43-118.57,60.43-76.5,0-138.08-58.52-138.08-138.46Z"/>
      <path class="st18" d="M2436.93,958.55h74.2v100.21h95.24v-100.21h74.2v267.75h-74.2v-101.74h-95.24v101.74h-74.2v-267.75Z"/>
    </g>
  </g>
  <g>
    <g>
      <polygon class="st11" points="1579.35 178.95 1579.35 159.82 1559.31 148.24 1539.26 159.82 1539.26 178.95 1559.31 190.52 1579.35 178.95"/>
      <polygon class="st15" points="1176.55 178.95 1176.55 159.82 1156.5 148.24 1136.46 159.82 1136.46 178.95 1156.5 190.52 1176.55 178.95"/>
      <polygon class="st13" points="1499.94 136.73 1500.14 136.61 1357.91 54.5 1357.91 151.62 1415.92 185.12 1499.94 136.61 1499.94 136.73"/>
      <polygon class="st11" points="1215.68 136.61 1299.79 185.18 1357.91 151.62 1357.91 54.5 1215.68 136.61"/>
      <polygon class="st20" points="1215.68 202.1 1299.79 250.68 1299.79 185.18 1215.68 136.61 1215.68 202.1"/>
      <polygon class="st1" points="1499.89 327.43 1499.94 327.45 1500.14 230.21 1499.94 230.35 1499.94 136.73 1416.02 185.18 1415.92 185.12 1415.82 185.18 1415.82 288.97 1499.92 327.42 1499.89 327.43"/>
      <polygon class="st20" points="1118.44 355.31 1034.32 306.74 1034.32 470.97 1118.44 422.41 1118.44 355.31"/>
      <polygon class="st15" points="1539.26 203.09 1539.03 203.23 1538.83 300.47 1539.26 300.22 1597.38 333.77 1681.49 285.21 1539.26 203.09"/>
      <polygon class="st20" points="1597.38 333.77 1597.38 401.96 1681.49 450.52 1681.49 285.21 1597.38 333.77"/>
      <polygon class="st11" points="1539.04 434.39 1539.04 531.52 1681.49 450.52 1597.38 401.96 1539.04 434.39"/>
      <polygon class="st15" points="1176.55 455.96 1176.55 553.09 1224.09 519.97 1224.09 422.86 1176.55 455.96"/>
      <polygon class="st19" points="1296.65 469.42 1321.05 452.42 1296.65 438.3 1296.65 469.42"/>
      <polygon class="st21" points="1118.44 422.41 1034.32 470.97 1176.55 553.09 1176.55 455.96 1118.44 422.41"/>
      <polygon class="st14" points="1357.72 329.46 1357.84 329.53 1357.89 329.49 1357.77 329.42 1357.72 329.46"/>
      <polygon class="st11" points="1176.55 321.75 1176.55 224.63 1034.32 306.74 1118.44 355.31 1176.55 321.75"/>
      <polygon class="st19" points="1357.89 329.49 1433.8 373.59 1499.89 327.43 1415.82 289 1415.82 288.97 1415.8 288.96 1357.89 329.34 1358.01 329.41 1357.89 329.49"/>
      <polygon class="st19" points="1357.69 329.37 1357.69 329.44 1357.72 329.46 1357.77 329.42 1357.69 329.37"/>
      <polygon class="st19" points="1357.89 329.49 1358.01 329.41 1357.89 329.34 1357.77 329.42 1357.89 329.49"/>
      <polygon class="st14" points="1357.94 426.72 1357.96 426.71 1357.91 426.69 1357.9 426.7 1357.94 426.72"/>
      <polygon class="st14" points="1357.69 329.48 1357.72 329.46 1357.69 329.44 1357.69 329.48"/>
      <polygon class="st15" points="1321.63 613.89 1394.19 614.55 1394.19 494.74 1321.63 452.75 1321.63 613.89"/>
      <polygon class="st15" points="1321.63 681.91 1357.91 702.61 1394.19 681.91 1394.19 653.9 1321.63 653.24 1321.63 681.91"/>
      <polygon class="st6" points="1418.89 667.25 1491.45 625.54 1491.45 613.67 1418.89 613.01 1418.89 667.25"/>
      <polygon class="st6" points="1418.89 509.04 1418.89 573.66 1491.45 574.32 1491.37 550.97 1418.89 509.04"/>
      <path class="st6" d="M1434.42,373.94h0l-76.53-44.6h0s-.08-.04-.08-.04h0s0,0,0,0l-181.16-104.67v97.13l105.12,60.89.05.03h.02s65.3,37.8,65.3,37.8l10.84,6.27,60.9,35.24,72.56,41.99h0s47.59,27.55,47.59,27.55v-97.13l-104.63-60.45ZM1357.69,329.37h0s0,0,0,0h0Z"/>
      <polygon class="st20" points="1244.92 408.36 1224.09 422.86 1224.09 519.97 1224.09 573.66 1296.65 574.32 1296.65 469.42 1296.65 438.3 1244.92 408.36"/>
      <polygon class="st20" points="1224.09 625.54 1296.65 667.25 1296.65 613.67 1224.09 613.01 1224.09 625.54"/>
      <polygon class="st10" points="1418.89 509.04 1491.37 550.97 1491.45 503.98 1418.89 461.99 1418.89 509.04"/>
      <polygon class="st18" points="1357.98 426.74 1357.96 426.73 1357.96 426.73 1281.82 382.67 1281.75 382.72 1281.74 382.73 1247.15 406.74 1247.15 406.74 1244.92 408.36 1394.19 494.74 1394.19 449.44 1394.19 447.69 1357.98 426.74"/>
    </g>
    <g>
      <polygon class="st0" points="1415.92 185.12 1416.02 185.18 1499.94 136.73 1499.94 136.61 1415.92 185.12"/>
      <polygon class="st0" points="1415.92 185.12 1357.91 151.62 1299.79 185.18 1299.79 212.73 1357.91 179.18 1415.82 212.62 1415.82 185.18 1415.92 185.12"/>
      <rect class="st0" x="1490.09" y="501.62" width="0" height="3.14" transform="translate(-53.32 805.59) rotate(-29.74)"/>
      <polygon class="st3" points="1357.69 329.37 1357.69 329.37 1357.69 329.37 1357.69 329.37"/>
      <polygon class="st3" points="1488.73 502.4 1488.73 502.4 1418.89 461.99 1488.73 502.4"/>
      <polygon class="st3" points="1499.89 327.43 1499.92 327.42 1415.82 288.97 1415.82 289 1499.89 327.43"/>
      <polygon class="st13" points="1299.79 212.73 1266.93 231.7 1299.79 250.68 1299.79 212.73"/>
      <polygon class="st13" points="1415.82 288.97 1499.92 327.42 1499.89 327.43 1499.94 327.45 1500.07 261.26 1415.82 212.62 1415.82 288.97"/>
      <polygon class="st19" points="1224.09 500.67 1224.09 422.86 1185.24 449.91 1185.24 478.24 1224.09 500.67"/>
      <polygon class="st3" points="1296.65 469.42 1321.05 452.42 1296.65 438.3 1296.65 469.42"/>
      <polygon class="st3" points="1415.82 289 1415.82 288.97 1415.8 288.96 1357.89 329.34 1358.01 329.41 1358.01 329.41 1433.8 373.58 1499.89 327.43 1415.82 289"/>
      <polygon class="st3" points="1357.69 329.37 1357.69 329.37 1357.69 329.37 1357.69 329.37"/>
      <rect class="st3" x="1357.95" y="329.31" width="0" height=".14" transform="translate(-3.94 642.07) rotate(-26.57)"/>
      <polygon class="st19" points="1321.63 452.75 1321.63 556.98 1357.91 577.93 1394.19 556.98 1394.19 494.74 1321.63 452.75"/>
      <polygon class="st14" points="1418.89 509.04 1418.89 542.72 1448.03 525.9 1418.89 509.04"/>
      <polygon class="st14" points="1281.82 382.67 1357.9 426.7 1357.91 426.69 1357.96 426.71 1357.94 426.72 1357.96 426.73 1357.98 426.74 1394.19 447.69 1394.19 447.69 1418.89 461.99 1488.73 502.4 1530.57 478.24 1530.57 429.5 1434.42 373.94 1433.8 373.58 1433.8 373.59 1357.89 329.49 1357.84 329.53 1357.72 329.46 1357.69 329.48 1357.69 329.44 1357.69 329.37 1357.69 329.37 1357.69 329.37 1357.69 329.37 1357.77 329.42 1357.89 329.34 1357.81 329.3 1357.8 329.29 1357.8 329.29 1227.9 254.24 1185.24 278.87 1185.24 326.73 1281.77 382.64 1281.82 382.67"/>
      <polygon class="st3" points="1357.72 329.46 1357.84 329.53 1357.89 329.49 1357.77 329.42 1357.72 329.46"/>
      <polygon class="st3" points="1357.89 329.49 1433.8 373.59 1433.8 373.58 1358.01 329.41 1357.89 329.49"/>
      <polygon class="st3" points="1357.69 329.37 1357.69 329.37 1357.69 329.44 1357.72 329.46 1357.77 329.42 1357.69 329.37"/>
      <polygon class="st3" points="1357.89 329.34 1357.89 329.34 1357.77 329.42 1357.89 329.49 1358.01 329.41 1357.89 329.34"/>
      <polygon class="st3" points="1357.96 426.71 1357.91 426.69 1357.9 426.7 1357.94 426.72 1357.96 426.71"/>
      <polygon class="st3" points="1357.69 329.48 1357.72 329.46 1357.69 329.44 1357.69 329.48"/>
      <polygon class="st13" points="1296.65 438.3 1244.92 408.36 1224.09 422.86 1224.09 500.67 1296.65 542.57 1296.65 469.42 1296.65 438.3"/>
      <polygon class="st18" points="1418.89 509.04 1448.03 525.9 1488.73 502.4 1418.89 461.99 1418.89 509.04"/>
      <polygon class="st3" points="1347.15 420.47 1281.84 382.68 1281.82 382.67 1281.75 382.72 1281.74 382.73 1247.15 406.74 1247.15 406.74 1244.92 408.36 1244.92 408.36 1244.92 408.36 1296.65 438.3 1321.05 452.42 1321.05 452.42 1321.63 452.75 1321.63 452.75 1394.19 494.74 1394.19 449.44 1394.19 447.69 1357.98 426.74 1347.15 420.47"/>
      <rect class="st3" x="1308.85" y="431.27" height="28.19"/>
      <polygon class="st3" points="1321.63 452.75 1394.19 494.74 1321.63 452.75 1321.63 452.75"/>
      <polygon class="st3" points="1347.15 420.47 1357.98 426.74 1357.96 426.73 1357.94 426.72 1357.94 426.72 1357.9 426.7 1357.9 426.7 1281.82 382.67 1281.84 382.68 1347.15 420.47"/>
      <polygon class="st3" points="1357.98 426.74 1394.19 447.69 1394.19 447.69 1357.98 426.74"/>
      <rect class="st3" x="1357.92" y="426.68" height=".05"/>
      <rect class="st3" x="1270.79" y="393.45" height="59.77"/>
    </g>
    <g>
      <g>
        <polygon class="st17" points="1357.79 198 1201.84 288.04 1357.86 377.95 1357.79 198"/>
        <polygon class="st16" points="1513.74 288.04 1513.74 468.11 1357.86 377.95 1513.74 288.04"/>
        <polygon class="st7" points="1357.79 558.15 1201.84 468.11 1357.86 377.95 1357.79 558.15"/>
        <polygon class="st9" points="1201.84 288.04 1201.84 468.11 1357.86 377.95 1201.84 288.04"/>
        <polygon class="st4" points="1357.79 198 1513.74 288.04 1357.86 377.95 1357.79 198"/>
        <polygon class="st2" points="1357.79 558.15 1513.74 468.11 1357.86 377.95 1357.79 558.15"/>
      </g>
      <g>
        <path class="st12" d="M1443.37,460.56l12.5,7.22v11.93l-12.5,7.22-12.5-7.22v-11.93l12.5-7.22"/>
        <polygon class="st5" points="1293.85 480.93 1274.32 461.39 1357.76 377.95 1274.32 294.5 1293.85 274.97 1396.83 377.95 1293.85 480.93"/>
        <rect class="st5" x="1364.8" y="433.06" width="25" height="81.38" transform="translate(1851.04 -903.55) rotate(90)"/>
      </g>
    </g>
  </g>
</svg>